<svg width="100" height="70" viewBox="0 0 100 70" fill="none" xmlns="http://www.w3.org/2000/svg">
<path d="M11.4418 12.4523C10.4966 12.4523 9.68237 12.3669 8.99912 12.1961C8.32725 12.0139 7.70662 11.6951 7.13724 11.2396C5.98709 10.3399 5.41202 8.61472 5.41202 6.0639C5.41202 4.99346 5.56575 4.05968 5.87322 3.26255C6.19207 2.46542 6.63049 1.8334 7.18849 1.36651C8.2817 0.455504 9.69945 0 11.4418 0C12.3414 0 13.1214 0.0797132 13.7819 0.23914C14.4538 0.398566 15.0858 0.68895 15.6779 1.11029C16.8736 1.97575 17.4715 3.62695 17.4715 6.0639C17.4715 8.25032 16.9306 9.86167 15.8488 10.8979C14.7669 11.9342 13.2979 12.4523 11.4418 12.4523ZM10.8781 9.53143C11.0147 9.69085 11.2026 9.77057 11.4418 9.77057C11.6809 9.77057 11.8688 9.69085 12.0054 9.53143C12.1421 9.36061 12.256 9.0076 12.3471 8.47238C12.4382 7.92577 12.4837 7.1685 12.4837 6.20055C12.4837 5.2326 12.4382 4.48672 12.3471 3.96289C12.256 3.43906 12.1421 3.09743 12.0054 2.938C11.8688 2.77858 11.6809 2.69886 11.4418 2.69886C11.2026 2.69886 11.0147 2.77858 10.8781 2.938C10.7414 3.09743 10.6275 3.43906 10.5364 3.96289C10.4453 4.48672 10.3998 5.2326 10.3998 6.20055C10.3998 7.1685 10.4453 7.92577 10.5364 8.47238C10.6275 9.0076 10.7414 9.36061 10.8781 9.53143Z" fill="#F1F3F3"/>
<path d="M30.1264 7.5329C30.1264 9.17272 29.6538 10.4026 28.7087 11.2225C27.7749 12.031 26.4141 12.4353 24.6262 12.4353C22.8497 12.4353 21.4832 12.031 20.5267 11.2225C19.5701 10.4026 19.0918 9.17272 19.0918 7.5329V1.26402C19.0918 0.979334 19.4107 0.723113 20.0484 0.495361C20.6975 0.267609 21.4491 0.153733 22.3031 0.153733C22.9864 0.153733 23.4305 0.28469 23.6355 0.546605C23.7835 0.751582 23.8575 0.92809 23.8575 1.07613V6.16639C23.8575 7.45319 23.9031 8.30726 23.9942 8.7286C24.0967 9.13855 24.3073 9.34353 24.6262 9.34353C24.9451 9.34353 25.1443 9.14425 25.2241 8.74568C25.3152 8.33573 25.3607 7.47027 25.3607 6.14931V1.26402C25.3607 0.979334 25.6796 0.723113 26.3173 0.495361C26.9664 0.267609 27.7122 0.153733 28.5549 0.153733C29.2723 0.153733 29.7278 0.28469 29.9214 0.546605C30.0581 0.751582 30.1264 0.92809 30.1264 1.07613V7.5329Z" fill="#F1F3F3"/>
<path d="M39.2579 11.8887C39.2579 12.0139 38.9049 12.1164 38.1988 12.1961C37.5042 12.2645 36.8039 12.2986 36.0978 12.2986C35.4032 12.2986 34.9591 12.2701 34.7655 12.2132C34.5833 12.1449 34.4922 12.0367 34.4922 11.8887V4.54365H32.1179C31.9926 4.54365 31.8844 4.38423 31.7933 4.06538C31.7022 3.74652 31.6567 3.27394 31.6567 2.64762C31.6567 2.00991 31.725 1.44053 31.8616 0.939478C31.9983 0.427035 32.1805 0.170814 32.4082 0.170814H41.6493C41.8201 0.170814 41.934 0.33024 41.9909 0.649093C42.0592 0.967946 42.0934 1.42914 42.0934 2.03269C42.0934 2.63623 42.0308 3.20561 41.9055 3.74083C41.7802 4.27605 41.6094 4.54365 41.3931 4.54365H39.2579V11.8887Z" fill="#F1F3F3"/>
<path d="M49.086 12.2986H45.0548C44.4968 12.2986 44.121 12.2588 43.9274 12.179C43.7338 12.0993 43.637 11.9684 43.637 11.7862V1.0078C43.637 0.711725 43.7623 0.501055 44.0128 0.375791C44.2633 0.23914 44.6961 0.170814 45.311 0.170814H49.1543C51.3407 0.170814 52.8496 0.603543 53.6809 1.469C54.5122 2.32307 54.9278 3.88317 54.9278 6.14931C54.9278 8.41544 54.4951 10.0097 53.6296 10.9321C52.7642 11.8431 51.2496 12.2986 49.086 12.2986ZM48.9493 2.71594C48.676 2.71594 48.4938 2.73872 48.4027 2.78427V9.68516L49.0518 9.75348C49.3934 9.75348 49.6497 9.48018 49.8205 8.93358C50.0027 8.38697 50.0938 7.4418 50.0938 6.09806C50.0938 4.75433 50.0027 3.8547 49.8205 3.3992C49.6383 2.9437 49.3479 2.71594 48.9493 2.71594Z" fill="#F1F3F3"/>
<path d="M62.4171 12.4523C61.4719 12.4523 60.6577 12.3669 59.9744 12.1961C59.3026 12.0139 58.6819 11.6951 58.1126 11.2396C56.9624 10.3399 56.3873 8.61472 56.3873 6.0639C56.3873 4.99346 56.5411 4.05968 56.8485 3.26255C57.1674 2.46542 57.6058 1.8334 58.1638 1.36651C59.257 0.455504 60.6748 0 62.4171 0C63.3167 0 64.0967 0.0797132 64.7572 0.23914C65.4291 0.398566 66.0611 0.68895 66.6533 1.11029C67.849 1.97575 68.4468 3.62695 68.4468 6.0639C68.4468 8.25032 67.9059 9.86167 66.8241 10.8979C65.7423 11.9342 64.2733 12.4523 62.4171 12.4523ZM61.8534 9.53143C61.99 9.69085 62.1779 9.77057 62.4171 9.77057C62.6562 9.77057 62.8441 9.69085 62.9808 9.53143C63.1174 9.36061 63.2313 9.0076 63.3224 8.47238C63.4135 7.92577 63.459 7.1685 63.459 6.20055C63.459 5.2326 63.4135 4.48672 63.3224 3.96289C63.2313 3.43906 63.1174 3.09743 62.9808 2.938C62.8441 2.77858 62.6562 2.69886 62.4171 2.69886C62.1779 2.69886 61.99 2.77858 61.8534 2.938C61.7167 3.09743 61.6029 3.43906 61.5118 3.96289C61.4207 4.48672 61.3751 5.2326 61.3751 6.20055C61.3751 7.1685 61.4207 7.92577 61.5118 8.47238C61.6029 9.0076 61.7167 9.36061 61.8534 9.53143Z" fill="#F1F3F3"/>
<path d="M75.8407 12.4523C74.8955 12.4523 74.0813 12.3669 73.398 12.1961C72.7262 12.0139 72.1055 11.6951 71.5361 11.2396C70.386 10.3399 69.8109 8.61472 69.8109 6.0639C69.8109 4.99346 69.9647 4.05968 70.2721 3.26255C70.591 2.46542 71.0294 1.8334 71.5874 1.36651C72.6806 0.455504 74.0984 0 75.8407 0C76.7403 0 77.5203 0.0797132 78.1808 0.23914C78.8527 0.398566 79.4847 0.68895 80.0769 1.11029C81.2726 1.97575 81.8704 3.62695 81.8704 6.0639C81.8704 8.25032 81.3295 9.86167 80.2477 10.8979C79.1658 11.9342 77.6968 12.4523 75.8407 12.4523ZM75.277 9.53143C75.4136 9.69085 75.6015 9.77057 75.8407 9.77057C76.0798 9.77057 76.2677 9.69085 76.4044 9.53143C76.541 9.36061 76.6549 9.0076 76.746 8.47238C76.8371 7.92577 76.8826 7.1685 76.8826 6.20055C76.8826 5.2326 76.8371 4.48672 76.746 3.96289C76.6549 3.43906 76.541 3.09743 76.4044 2.938C76.2677 2.77858 76.0798 2.69886 75.8407 2.69886C75.6015 2.69886 75.4136 2.77858 75.277 2.938C75.1403 3.09743 75.0265 3.43906 74.9353 3.96289C74.8442 4.48672 74.7987 5.2326 74.7987 6.20055C74.7987 7.1685 74.8442 7.92577 74.9353 8.47238C75.0265 9.0076 75.1403 9.36061 75.277 9.53143Z" fill="#F1F3F3"/>
<path d="M88.2735 11.8033C88.2735 11.9513 87.9262 12.0709 87.2316 12.162C86.5369 12.2531 85.8366 12.2986 85.1305 12.2986C84.4359 12.2986 83.9861 12.2588 83.7811 12.179C83.5875 12.0993 83.4907 11.9741 83.4907 11.8033V0.819907C83.4907 0.52383 83.8608 0.313159 84.601 0.187895C85.3526 0.0626317 86.2978 0 87.4365 0C88.5753 0 89.3098 0.00569373 89.64 0.0170812C89.9817 0.0170812 90.3802 0.0341627 90.8357 0.0683258C91.2912 0.102488 91.6499 0.159426 91.9119 0.23914C92.1852 0.318853 92.4812 0.421341 92.8001 0.546605C93.1303 0.671869 93.3866 0.836989 93.5688 1.04197C93.751 1.23556 93.9275 1.469 94.0983 1.7423C94.4058 2.23197 94.5595 2.93231 94.5595 3.84332C94.5595 4.74294 94.4058 5.50591 94.0983 6.13223C93.8022 6.74716 93.4036 7.21405 92.9026 7.5329C94.2122 9.59406 94.867 10.9036 94.867 11.4616C94.867 12.0196 93.7453 12.2986 91.5019 12.2986C90.8528 12.2986 90.403 12.2701 90.1525 12.2132C89.902 12.1563 89.7425 12.031 89.6742 11.8374L88.5639 8.31865L88.2735 8.30156V11.8033ZM88.2735 5.67103H88.7176C89.3781 5.67103 89.7084 5.15859 89.7084 4.1337C89.7084 3.60987 89.6173 3.23977 89.4351 3.02341C89.2642 2.80704 89.065 2.69886 88.8372 2.69886H88.2735V5.67103Z" fill="#F1F3F3"/>
<path d="M14.6416 51.8665C14.6416 52.3913 13.5046 52.7761 11.2305 53.021C8.99141 53.2659 6.85726 53.3884 4.82807 53.3884C2.79888 53.3884 1.48691 53.2659 0.892143 53.021C0.297381 52.7761 0 52.3913 0 51.8665V18.5948C0 17.6852 0.454818 17.0379 1.36445 16.6531C2.27409 16.2682 3.98841 16.0758 6.5074 16.0758H25.9771C26.7118 16.0758 27.0792 17.4053 27.0792 20.0642C27.0792 22.6882 26.9042 24.6999 26.5544 26.0993C26.2395 27.4638 25.8197 28.146 25.2949 28.146L14.6416 27.6212V31.1898C19.2948 30.9799 22.4085 30.8749 23.9829 30.8749C24.5077 30.8749 24.8576 31.1548 25.0325 31.7146C25.2424 32.2743 25.3474 33.3589 25.3474 34.9683C25.3474 36.5426 25.1724 38.0645 24.8226 39.5339C24.4727 40.9684 23.9829 41.6856 23.3532 41.6856L14.6416 41.3707V51.8665Z" fill="#F1F3F3"/>
<path d="M63.0765 38.7467C63.0765 43.7847 61.6246 47.5632 58.7207 50.0822C55.8519 52.5662 51.6711 53.8082 46.1783 53.8082C40.7204 53.8082 36.5221 52.5662 33.5833 50.0822C30.6445 47.5632 29.1751 43.7847 29.1751 38.7467V19.4869C29.1751 18.6123 30.1547 17.8251 32.1139 17.1254C34.1081 16.4257 36.4172 16.0758 39.0411 16.0758C41.1403 16.0758 42.5047 16.4781 43.1345 17.2828C43.5893 17.9126 43.8167 18.4549 43.8167 18.9097V34.5484C43.8167 38.5018 43.9566 41.1258 44.2365 42.4203C44.5514 43.6798 45.1987 44.3095 46.1783 44.3095C47.1579 44.3095 47.7701 43.6973 48.015 42.4728C48.2949 41.2133 48.4349 38.5543 48.4349 34.4959V19.4869C48.4349 18.6123 49.4145 17.8251 51.3737 17.1254C53.3679 16.4257 55.6595 16.0758 58.2484 16.0758C60.4525 16.0758 61.852 16.4781 62.4468 17.2828C62.8666 17.9126 63.0765 18.4549 63.0765 18.9097V38.7467Z" fill="#F1F3F3"/>
<path d="M80.3204 51.8665C80.3204 52.3213 79.2358 52.6887 77.0667 52.9686C74.9325 53.2484 72.7984 53.3884 70.6642 53.3884C68.5301 53.3884 67.1656 53.2659 66.5709 53.021C65.9761 52.7761 65.6787 52.3913 65.6787 51.8665V19.6444C65.6787 18.7697 66.6758 17.9651 68.67 17.2303C70.6992 16.4956 72.9908 16.1283 75.5448 16.1283C76.4544 16.1283 77.1366 16.1633 77.5915 16.2332C78.781 16.4082 79.6207 17.1604 80.1105 18.4898L85.1484 32.0294H85.3584V19.6444C85.3584 18.7697 86.3555 17.9651 88.3497 17.2303C90.3439 16.4956 92.618 16.1283 95.1719 16.1283C97.376 16.1283 98.7755 16.5481 99.3703 17.3878C99.7901 17.9825 100 18.5248 100 19.0146V51.8665C100 52.3213 98.9154 52.6887 96.7463 52.9686C94.6122 53.2484 92.2506 53.3884 89.6616 53.3884C87.1077 53.3884 85.7082 53.056 85.4633 52.3913L80.5828 39.4815H80.3204V51.8665Z" fill="#F1F3F3"/>
<path d="M10.3459 68.5071C10.3459 68.6552 9.99286 68.7748 9.28683 68.8659C8.59219 68.957 7.89754 69.0025 7.2029 69.0025C6.50826 69.0025 6.06414 68.9626 5.87055 68.8829C5.67696 68.8032 5.58017 68.678 5.58017 68.5071V58.0192C5.58017 57.7345 5.90471 57.4726 6.55381 57.2334C7.21429 56.9943 7.96018 56.8747 8.79147 56.8747C9.08755 56.8747 9.30961 56.8861 9.45765 56.9089C9.84482 56.9658 10.1181 57.2106 10.2776 57.6434L11.9174 62.0504H11.9857V58.0192C11.9857 57.7345 12.3102 57.4726 12.9593 57.2334C13.6084 56.9943 14.3486 56.8747 15.1799 56.8747C15.8973 56.8747 16.3528 57.0114 16.5464 57.2847C16.6831 57.4782 16.7514 57.6548 16.7514 57.8142V68.5071C16.7514 68.6552 16.3984 68.7748 15.6924 68.8659C14.9977 68.957 14.2291 69.0025 13.3864 69.0025C12.5551 69.0025 12.0996 68.8943 12.0199 68.678L10.4313 64.4759H10.3459V68.5071Z" fill="#F1F3F3"/>
<path d="M27.1262 69.0025H19.8837C19.3257 69.0025 18.9499 68.9626 18.7563 68.8829C18.5627 68.8032 18.466 68.678 18.466 68.5071V57.6946C18.466 57.3985 18.5969 57.1879 18.8588 57.0626C19.1321 56.9373 19.6161 56.8747 20.3107 56.8747H27.1775C27.4166 56.8747 27.5362 57.2733 27.5362 58.0704C27.5362 58.8562 27.4849 59.4597 27.3824 59.881C27.28 60.291 27.1433 60.496 26.9725 60.496C26.2323 60.496 24.9854 60.4219 23.2317 60.2739V61.4184C24.917 61.35 26.0159 61.3159 26.5284 61.3159C26.8358 61.3159 26.9896 61.6746 26.9896 62.392C26.9896 63.1094 26.9269 63.656 26.8017 64.0318C26.6878 64.3962 26.5284 64.5784 26.3234 64.5784L23.2317 64.5101V65.6033C25.2131 65.4553 26.5796 65.3812 27.3312 65.3812C27.5703 65.3812 27.6899 65.7798 27.6899 66.577C27.6899 67.3741 27.6387 67.9776 27.5362 68.3876C27.4337 68.7975 27.297 69.0025 27.1262 69.0025Z" fill="#F1F3F3"/>
<path d="M36.4928 68.5926C36.4928 68.7178 36.1398 68.8203 35.4338 68.9C34.7392 68.9683 34.0388 69.0025 33.3328 69.0025C32.6381 69.0025 32.194 68.974 32.0004 68.9171C31.8182 68.8488 31.7271 68.7406 31.7271 68.5926V61.2476H29.3528C29.2275 61.2476 29.1194 61.0881 29.0283 60.7693C28.9372 60.4504 28.8916 59.9778 28.8916 59.3515C28.8916 58.7138 28.9599 58.1444 29.0966 57.6434C29.2332 57.1309 29.4154 56.8747 29.6432 56.8747H38.8842C39.0551 56.8747 39.1689 57.0341 39.2259 57.353C39.2942 57.6718 39.3284 58.133 39.3284 58.7366C39.3284 59.3401 39.2657 59.9095 39.1405 60.4447C39.0152 60.9799 38.8444 61.2476 38.628 61.2476H36.4928V68.5926Z" fill="#F1F3F3"/>
<path d="M45.3985 69.0025C44.8519 69.0025 44.4932 68.9626 44.3224 68.8829C44.1516 68.8032 44.032 68.6666 43.9637 68.473L40.1887 58.0533C40.1887 57.837 40.593 57.5864 41.4015 57.3017C42.2214 57.0171 43.047 56.8747 43.8783 56.8747C44.9487 56.8747 45.5181 57.2106 45.5864 57.8825L46.1672 63.2973H46.4063L46.8846 57.8825C46.9415 57.2106 47.7102 56.8747 49.1906 56.8747C49.76 56.8747 50.1415 56.9544 50.3351 57.1138C50.5286 57.2619 50.6368 57.4612 50.6596 57.7117L51.2233 63.2973H51.4624L51.9065 57.8825C51.9407 57.5523 52.3279 57.3017 53.0681 57.1309C53.8197 56.9601 54.5599 56.8747 55.2887 56.8747C56.0289 56.8747 56.5299 56.9829 56.7918 57.1993C57.0651 57.4156 57.2018 57.6434 57.2018 57.8825L53.5464 68.473C53.4211 68.826 52.5784 69.0025 51.0183 69.0025C50.5514 69.0025 50.2383 68.9626 50.0788 68.8829C49.9194 68.8032 49.8112 68.6666 49.7543 68.473L48.8661 65.5008H48.6611L47.7558 68.473C47.6533 68.826 46.8675 69.0025 45.3985 69.0025Z" fill="#F1F3F3"/>
<path d="M63.6475 69.1562C62.7023 69.1562 61.8881 69.0708 61.2048 68.9C60.533 68.7178 59.9123 68.399 59.343 67.9435C58.1928 67.0438 57.6177 65.3186 57.6177 62.7678C57.6177 61.6974 57.7715 60.7636 58.0789 59.9664C58.3978 59.1693 58.8362 58.5373 59.3942 58.0704C60.4874 57.1594 61.9052 56.7039 63.6475 56.7039C64.5471 56.7039 65.3271 56.7836 65.9876 56.943C66.6595 57.1025 67.2915 57.3928 67.8837 57.8142C69.0794 58.6796 69.6772 60.3308 69.6772 62.7678C69.6772 64.9542 69.1363 66.5656 68.0545 67.6018C66.9727 68.6381 65.5037 69.1562 63.6475 69.1562ZM63.0838 66.2353C63.2204 66.3948 63.4083 66.4745 63.6475 66.4745C63.8866 66.4745 64.0745 66.3948 64.2112 66.2353C64.3478 66.0645 64.4617 65.7115 64.5528 65.1763C64.6439 64.6297 64.6894 63.8724 64.6894 62.9044C64.6894 61.9365 64.6439 61.1906 64.5528 60.6668C64.4617 60.143 64.3478 59.8013 64.2112 59.6419C64.0745 59.4825 63.8866 59.4028 63.6475 59.4028C63.4083 59.4028 63.2204 59.4825 63.0838 59.6419C62.9471 59.8013 62.8333 60.143 62.7422 60.6668C62.6511 61.1906 62.6055 61.9365 62.6055 62.9044C62.6055 63.8724 62.6511 64.6297 62.7422 65.1763C62.8333 65.7115 62.9471 66.0645 63.0838 66.2353Z" fill="#F1F3F3"/>
<path d="M75.9095 68.5071C75.9095 68.6552 75.5622 68.7748 74.8676 68.8659C74.1729 68.957 73.4726 69.0025 72.7665 69.0025C72.0719 69.0025 71.6221 68.9626 71.4171 68.8829C71.2235 68.8032 71.1267 68.678 71.1267 68.5071V57.5238C71.1267 57.2277 71.4968 57.0171 72.237 56.8918C72.9886 56.7665 73.9338 56.7039 75.0725 56.7039C76.2113 56.7039 76.9458 56.7096 77.276 56.721C77.6177 56.721 78.0162 56.7381 78.4717 56.7722C78.9272 56.8064 79.2859 56.8633 79.5479 56.943C79.8212 57.0228 80.1172 57.1252 80.4361 57.2505C80.7663 57.3758 81.0226 57.5409 81.2048 57.7459C81.387 57.9394 81.5635 58.1729 81.7343 58.4462C82.0418 58.9359 82.1955 59.6362 82.1955 60.5472C82.1955 61.4468 82.0418 62.2098 81.7343 62.8361C81.4382 63.451 81.0396 63.9179 80.5386 64.2368C81.8482 66.298 82.5029 67.6075 82.5029 68.1655C82.5029 68.7235 81.3813 69.0025 79.1379 69.0025C78.4888 69.0025 78.039 68.974 77.7885 68.9171C77.538 68.8602 77.3785 68.7349 77.3102 68.5413L76.1999 65.0225L75.9095 65.0055V68.5071ZM75.9095 62.3749H76.3536C77.0141 62.3749 77.3444 61.8625 77.3444 60.8376C77.3444 60.3138 77.2533 59.9437 77.0711 59.7273C76.9002 59.5109 76.701 59.4028 76.4732 59.4028H75.9095V62.3749Z" fill="#F1F3F3"/>
<path d="M88.4613 68.473C88.4613 68.621 88.1083 68.7406 87.4022 68.8317C86.7076 68.9228 86.013 68.9683 85.3183 68.9683C84.6237 68.9683 84.1796 68.9285 83.986 68.8488C83.7924 68.7691 83.6956 68.6438 83.6956 68.473V58.0021C83.6956 57.706 84.0144 57.4441 84.6521 57.2163C85.3012 56.9886 86.0471 56.8747 86.8898 56.8747C87.5844 56.8747 88.0343 57.0114 88.2392 57.2847C88.3873 57.4782 88.4613 57.6548 88.4613 57.8142V60.6326H88.5979C88.5979 60.5757 88.7688 60.1031 89.1104 59.2149C89.7595 57.5409 90.2321 56.7039 90.5281 56.7039C91.0861 56.7039 91.8719 56.869 92.8854 57.1993C93.375 57.3587 93.7964 57.5921 94.1494 57.8996C94.5024 58.1957 94.6789 58.5259 94.6789 58.8903C94.6789 59.1181 94.4455 59.5622 93.9786 60.2227C93.5231 60.8718 92.8284 61.7429 91.8947 62.8361C92.111 63.0639 92.3843 63.3543 92.7146 63.7073C93.0448 64.0603 93.4832 64.5898 94.0298 65.2958C94.5878 65.9905 94.8668 66.4858 94.8668 66.7819C94.8668 67.078 94.5992 67.4253 94.064 67.8239C93.5288 68.2111 92.9594 68.5299 92.3559 68.7804C91.7523 69.0196 91.3025 69.1392 91.0064 69.1392C90.8128 69.1392 90.5452 68.8488 90.2036 68.268C89.8734 67.6758 89.4691 66.7933 88.9908 65.6204L88.4613 66.2524V68.473Z" fill="#F1F3F3"/>
</svg>
