<svg viewBox="0 0 153 131" fill="none" xmlns="http://www.w3.org/2000/svg">
<path class="line" fill-rule="evenodd" clip-rule="evenodd" d="M152.42 130.5L76.2102 0L0 130.5H152.42ZM94.7026 39.1017L114.121 65.0456L110.319 60.447L94.6979 80.3438L76.6481 57.3877L58.6694 80.2878L43.3342 60.7841L58.6741 39.0457L76.6528 8.54572L94.7026 39.1017ZM39.6214 66.0456L43.3342 60.7841L42.9797 60.3333L39.6214 66.0456Z" fill="#15AFD1"/>
<path fill="#0F7E96"  fill-rule="evenodd" clip-rule="evenodd" d="M113.001 64.5001L93.5808 89.5102L75.531 66.554L57.5523 89.4541L38.5007 65.5001L41.8591 59.7878L57.5488 79.7423L75.5274 56.8422L93.5772 79.7984L109.198 59.9016L113.001 64.5001Z"/>
<path fill="#0F7E96" fill-rule="evenodd" clip-rule="evenodd" d="M56.6016 106.802C56.6008 106.801 56.6 106.8 59 105C61.4 103.2 61.3992 103.199 61.3985 103.198L61.3971 103.196L61.392 103.189C61.3949 103.193 61.4034 103.204 61.4174 103.222C61.4454 103.257 61.4954 103.319 61.5671 103.403C61.7107 103.572 61.94 103.832 62.2529 104.151C62.8806 104.792 63.8321 105.663 65.0882 106.537C67.5979 108.283 71.2611 110 76 110C80.7389 110 84.402 108.283 86.9118 106.537C88.1679 105.663 89.1193 104.792 89.7471 104.151C90.0599 103.832 90.2893 103.572 90.4328 103.403C90.5045 103.319 90.5545 103.257 90.5825 103.222C90.5965 103.204 90.605 103.193 90.6079 103.189L90.6028 103.196L90.6015 103.198C90.6007 103.199 90.6 103.2 93 105C95.4 106.8 95.3992 106.801 95.3984 106.802L95.3966 106.804L95.3926 106.81L95.383 106.822L95.3569 106.856C95.3365 106.883 95.3099 106.917 95.2773 106.958C95.212 107.04 95.1224 107.15 95.0085 107.284C94.781 107.553 94.4556 107.918 94.0341 108.349C93.1931 109.208 91.9571 110.336 90.3382 111.463C87.0979 113.717 82.2611 116 76 116C69.7389 116 64.902 113.717 61.6618 111.463C60.0429 110.336 58.8068 109.208 57.9658 108.349C57.5443 107.918 57.219 107.553 56.9914 107.284C56.8776 107.15 56.7879 107.04 56.7227 106.958C56.69 106.917 56.6635 106.883 56.643 106.856L56.6169 106.822L56.6073 106.81L56.6034 106.804L56.6016 106.802ZM61.392 103.189C61.3907 103.188 61.3905 103.187 61.392 103.189V103.189Z"/>
<path d="M5.22606 128L76.2102 6.44894L147.194 128H5.22606Z" stroke="#0F7E96" stroke-width="6"/>
</svg>
